<?xml version="1.0" encoding="utf-8"?>
<svg xmlns="http://www.w3.org/2000/svg" width="1280px" height="720px" viewBox="0 0 1280 720" version="1.1" id="hd"><rect width="80" height="80" x="100" y="100" id="1" style="stroke: #ad3d45; stroke-width: 5; fill: #1a867e; "/><rect width="80" height="80" x="182" y="100" id="2"/><rect width="80" height="80" x="264" y="100" id="3"/><rect width="80" height="80" x="346" y="100" id="4" style="fill: #d9737a; "/><rect width="80" height="80" x="428" y="100" id="5"/><rect width="80" height="80" x="510" y="100" id="6"/><rect width="80" height="80" x="592" y="100" id="7"/><rect width="80" height="80" x="674" y="100" id="8" style="fill: #d9737a; "/><rect width="80" height="80" x="756" y="100" id="9"/><rect width="80" height="80" x="838" y="100" id="10" style="fill: #861a22; "/><rect width="80" height="80" x="920" y="100" id="11"/><rect width="80" height="80" x="1002" y="100" id="12" style="fill: #d9737a; "/><rect width="80" height="80" x="1084" y="100" id="13"/><rect width="80" height="80" x="1166" y="100" id="14" style="fill: #1a867e; "/><rect width="80" height="80" x="100" y="182" id="15"/><rect width="80" height="80" x="182" y="182" id="16" style="stroke: #ad3d45; stroke-width: 5; fill: #d9737a; "/><rect width="80" height="80" x="264" y="182" id="17"/><rect width="80" height="80" x="346" y="182" id="18"/><rect width="80" height="80" x="428" y="182" id="19" rx="20" ry="20"/><rect width="80" height="80" x="510" y="182" id="20" style="fill: #d9737a; "/><rect width="80" height="80" x="592" y="182" id="21"/><rect width="80" height="80" x="674" y="182" id="22"/><rect width="80" height="80" x="756" y="182" id="23"/><rect width="80" height="80" x="838" y="182" id="24" style="fill: #d9737a; "/><rect width="80" height="80" x="920" y="182" id="25"/><rect width="80" height="80" x="1002" y="182" id="26"/><rect width="80" height="80" x="1084" y="182" id="27"/><rect width="80" height="80" x="1166" y="182" id="28" style="fill: #d9737a; "/><rect width="80" height="80" x="100" y="264" id="29"/><rect width="80" height="80" x="182" y="264" id="30"/><rect width="80" height="80" x="264" y="264" id="31" style="stroke: #ad3d45; stroke-width: 5; "/><rect width="80" height="80" x="346" y="264" id="32" style="fill: #d9737a; "/><rect width="80" height="80" x="428" y="264" id="33"/><rect width="80" height="80" x="510" y="264" id="34"/><rect width="80" height="80" x="592" y="264" id="35"/><rect width="80" height="80" x="674" y="264" id="36" style="fill: #d9737a; "/><rect width="80" height="80" x="756" y="264" id="37"/><rect width="80" height="80" x="838" y="264" id="38" rx="20" ry="20"/><rect width="80" height="80" x="920" y="264" id="39"/><rect width="80" height="80" x="1002" y="264" id="40" style="fill: #d9737a; "/><rect width="80" height="80" x="1084" y="264" id="41"/><rect width="80" height="80" x="1166" y="264" id="42"/><rect width="80" height="80" x="100" y="346" id="43"/><rect width="80" height="80" x="182" y="346" id="44" style="fill: #d9737a; "/><rect width="80" height="80" x="264" y="346" id="45"/><rect width="80" height="80" x="346" y="346" id="46" style="stroke: #ad3d45; stroke-width: 5; "/><rect width="80" height="80" x="428" y="346" id="47"/><rect width="80" height="80" x="510" y="346" id="48" style="fill: #d9737a; "/><rect width="80" height="80" x="592" y="346" id="49"/><rect width="80" height="80" x="674" y="346" id="50"/><rect width="80" height="80" x="756" y="346" id="51"/><rect width="80" height="80" x="838" y="346" id="52" style="fill: #d9737a; "/><rect width="80" height="80" x="920" y="346" id="53"/><rect width="80" height="80" x="1002" y="346" id="54"/><rect width="80" height="80" x="1084" y="346" id="55"/><rect width="80" height="80" x="1166" y="346" id="56" style="fill: #d9737a; "/><rect width="80" height="80" x="100" y="428" id="57" rx="20" ry="20"/><rect width="80" height="80" x="182" y="428" id="58"/><rect width="80" height="80" x="264" y="428" id="59"/><rect width="80" height="80" x="346" y="428" id="60" style="fill: #d9737a; "/><rect width="80" height="80" x="428" y="428" id="61" style="stroke: #ad3d45; stroke-width: 5; "/><rect width="80" height="80" x="510" y="428" id="62"/><rect width="80" height="80" x="592" y="428" id="63"/><rect width="80" height="80" x="674" y="428" id="64" style="fill: #d9737a; "/><rect width="80" height="80" x="756" y="428" id="65"/><rect width="80" height="80" x="838" y="428" id="66"/><rect width="80" height="80" x="920" y="428" id="67"/><rect width="80" height="80" x="1002" y="428" id="68" style="fill: #d9737a; "/><rect width="80" height="80" x="1084" y="428" id="69"/><rect width="80" height="80" x="1166" y="428" id="70"/><rect width="80" height="80" x="100" y="510" id="71"/><rect width="80" height="80" x="182" y="510" id="72" style="fill: #d9737a; "/><rect width="80" height="80" x="264" y="510" id="73"/><rect width="80" height="80" x="346" y="510" id="74"/><rect width="80" height="80" x="428" y="510" id="75"/><rect width="80" height="80" x="510" y="510" id="76" style="stroke: #ad3d45; stroke-width: 5; fill: #d9737a; " rx="20" ry="20"/><rect width="80" height="80" x="592" y="510" id="77"/><rect width="80" height="80" x="674" y="510" id="78"/><rect width="80" height="80" x="756" y="510" id="79"/><rect width="80" height="80" x="838" y="510" id="80" style="fill: #d9737a; "/><rect width="80" height="80" x="920" y="510" id="81"/><rect width="80" height="80" x="1002" y="510" id="82"/><rect width="80" height="80" x="1084" y="510" id="83"/><rect width="80" height="80" x="1166" y="510" id="84" style="fill: #d9737a; "/><rect width="80" height="80" x="100" y="592" id="85"/><rect width="80" height="80" x="182" y="592" id="86"/><rect width="80" height="80" x="264" y="592" id="87"/><rect width="80" height="80" x="346" y="592" id="88" style="fill: #d9737a; "/><rect width="80" height="80" x="428" y="592" id="89"/><rect width="80" height="80" x="510" y="592" id="90"/><rect width="80" height="80" x="592" y="592" id="91" style="stroke: #ad3d45; stroke-width: 5; "/><rect width="80" height="80" x="674" y="592" id="92" style="fill: #d9737a; "/><rect width="80" height="80" x="756" y="592" id="93"/><rect width="80" height="80" x="838" y="592" id="94"/><rect width="80" height="80" x="920" y="592" id="95" rx="20" ry="20"/><rect width="80" height="80" x="1002" y="592" id="96" style="fill: #d9737a; "/><rect width="80" height="80" x="1084" y="592" id="97"/><rect width="80" height="80" x="1166" y="592" id="98"/></svg>