<?xml version="1.0" encoding="utf-8"?>
<svg xmlns="http://www.w3.org/2000/svg" width="297mm" height="210mm" viewBox="0 0 297 210" version="1.1" id="a4"><g><path style="fill: none; fill-rule: evenodd; stroke: #000000; stroke-width: 1px; stroke-linecap: butt; stroke-linejoin: miter; stroke-opacity: 1; " d="M 129.39192,24.869297 c -0.75878,0.0692 2.78503,2.92273 12.23402,10.53204 l 30.23667,24.35009 l -48.08167,-13.91461 c 57.49941,27.82834 57.99511,57.644813 57.49942,27.82873 c -0.49568,-29.81608 36.68075,-21.3683 -1.48696,-29.81619 c -26.2403,-5.80792 -48.73218,-19.13219 -50.40148,-18.98006 z"/><path style="fill: none; fill-rule: evenodd; stroke: #000000; stroke-width: 1px; stroke-linecap: butt; stroke-linejoin: miter; stroke-opacity: 1; " d="M 102.46653,63.229597 l -3.469898,41.245643 l 41.637838,-13.914133 c 41.6375,-13.91417 13.38337,-2.4846 -29.74118,-6.46008 l -8.42676,-20.87143 z"/><path style="fill: none; fill-rule: evenodd; stroke: #000000; stroke-width: 1px; stroke-linecap: butt; stroke-linejoin: miter; stroke-opacity: 1; " d="M 180.2889,106.95992 l -71.87404,1.98794 l 71.87404,-1.98794 z"/><path style="fill: none; fill-rule: evenodd; stroke: #000000; stroke-width: 1px; stroke-linecap: butt; stroke-linejoin: miter; stroke-opacity: 1; " d="M 168.39271,124.84944 l 32.21961,70.06786 l -32.21961,-70.06786 z"/><path style="fill: none; fill-rule: evenodd; stroke: #000000; stroke-width: 1px; stroke-linecap: butt; stroke-linejoin: miter; stroke-opacity: 1; " d="M 123.60225,55.599477 A 31.202026,7.1161235 0 0 1 102.0148,62.369338 A 31.202026,7.1161235 0 0 1 67.123462,59.7716 a 31.202026,7.1161235 0 0 1 0.0847,-8.370793 a 31.202026,7.1161235 0 0 1 34.943508,-2.561005 l -9.751398,6.759675 z"/></g></svg>
