<?xml version="1.0" encoding="utf-8"?>
<svg xmlns="http://www.w3.org/2000/svg" width="1280px" height="720px" viewBox="0 0 1280 720" version="1.1" id="fhd"><rect id="1" x="100" y="100" width="80" height="80" style="stroke: #ff0000; stroke-width: 5; "/><rect id="2" x="182" y="100" width="80" height="80"/><rect id="3" x="264" y="100" width="80" height="80"/><rect id="4" x="346" y="100" width="80" height="80" style="fill: #0000ff; "/><rect id="5" x="428" y="100" width="80" height="80"/><rect id="6" x="510" y="100" width="80" height="80"/><rect id="7" x="592" y="100" width="80" height="80"/><rect id="8" x="674" y="100" width="80" height="80" style="fill: #0000ff; "/><rect id="9" x="756" y="100" width="80" height="80"/><rect id="10" x="838" y="100" width="80" height="80" style="fill: green; "/><rect id="11" x="920" y="100" width="80" height="80"/><rect id="12" x="1002" y="100" width="80" height="80" style="fill: #0000ff; "/><rect id="13" x="1084" y="100" width="80" height="80"/><rect id="14" x="1166" y="100" width="80" height="80"/><rect id="15" x="100" y="182" width="80" height="80"/><rect id="16" x="182" y="182" width="80" height="80" style="stroke: #ff0000; stroke-width: 5; fill: #0000ff; "/><rect id="17" x="264" y="182" width="80" height="80"/><rect id="18" x="346" y="182" width="80" height="80"/><rect id="19" x="428" y="182" width="80" height="80" rx="20" ry="20"/><rect id="20" x="510" y="182" width="80" height="80" style="fill: #0000ff; "/><rect id="21" x="592" y="182" width="80" height="80"/><rect id="22" x="674" y="182" width="80" height="80"/><rect id="23" x="756" y="182" width="80" height="80"/><rect id="24" x="838" y="182" width="80" height="80" style="fill: #0000ff; "/><rect id="25" x="920" y="182" width="80" height="80"/><rect id="26" x="1002" y="182" width="80" height="80"/><rect id="27" x="1084" y="182" width="80" height="80"/><rect id="28" x="1166" y="182" width="80" height="80" style="fill: #0000ff; "/><rect id="29" x="100" y="264" width="80" height="80"/><rect id="30" x="182" y="264" width="80" height="80"/><rect id="31" x="264" y="264" width="80" height="80" style="stroke: #ff0000; stroke-width: 5; "/><rect id="32" x="346" y="264" width="80" height="80" style="fill: #0000ff; "/><rect id="33" x="428" y="264" width="80" height="80"/><rect id="34" x="510" y="264" width="80" height="80"/><rect id="35" x="592" y="264" width="80" height="80"/><rect id="36" x="674" y="264" width="80" height="80" style="fill: #0000ff; "/><rect id="37" x="756" y="264" width="80" height="80"/><rect id="38" x="838" y="264" width="80" height="80" rx="20" ry="20"/><rect id="39" x="920" y="264" width="80" height="80"/><rect id="40" x="1002" y="264" width="80" height="80" style="fill: #0000ff; "/><rect id="41" x="1084" y="264" width="80" height="80"/><rect id="42" x="1166" y="264" width="80" height="80"/><rect id="43" x="100" y="346" width="80" height="80"/><rect id="44" x="182" y="346" width="80" height="80" style="fill: #0000ff; "/><rect id="45" x="264" y="346" width="80" height="80"/><rect id="46" x="346" y="346" width="80" height="80" style="stroke: #ff0000; stroke-width: 5; "/><rect id="47" x="428" y="346" width="80" height="80"/><rect id="48" x="510" y="346" width="80" height="80" style="fill: #0000ff; "/><rect id="49" x="592" y="346" width="80" height="80"/><rect id="50" x="674" y="346" width="80" height="80"/><rect id="51" x="756" y="346" width="80" height="80"/><rect id="52" x="838" y="346" width="80" height="80" style="fill: #0000ff; "/><rect id="53" x="920" y="346" width="80" height="80"/><rect id="54" x="1002" y="346" width="80" height="80"/><rect id="55" x="1084" y="346" width="80" height="80"/><rect id="56" x="1166" y="346" width="80" height="80" style="fill: #0000ff; "/><rect id="57" x="100" y="428" width="80" height="80" rx="20" ry="20"/><rect id="58" x="182" y="428" width="80" height="80"/><rect id="59" x="264" y="428" width="80" height="80"/><rect id="60" x="346" y="428" width="80" height="80" style="fill: #0000ff; "/><rect id="61" x="428" y="428" width="80" height="80" style="stroke: #ff0000; stroke-width: 5; "/><rect id="62" x="510" y="428" width="80" height="80"/><rect id="63" x="592" y="428" width="80" height="80"/><rect id="64" x="674" y="428" width="80" height="80" style="fill: #0000ff; "/><rect id="65" x="756" y="428" width="80" height="80"/><rect id="66" x="838" y="428" width="80" height="80"/><rect id="67" x="920" y="428" width="80" height="80"/><rect id="68" x="1002" y="428" width="80" height="80" style="fill: #0000ff; "/><rect id="69" x="1084" y="428" width="80" height="80"/><rect id="70" x="1166" y="428" width="80" height="80"/><rect id="71" x="100" y="510" width="80" height="80"/><rect id="72" x="182" y="510" width="80" height="80" style="fill: #0000ff; "/><rect id="73" x="264" y="510" width="80" height="80"/><rect id="74" x="346" y="510" width="80" height="80"/><rect id="75" x="428" y="510" width="80" height="80"/><rect id="76" x="510" y="510" width="80" height="80" style="stroke: #ff0000; stroke-width: 5; fill: #0000ff; " rx="20" ry="20"/><rect id="77" x="592" y="510" width="80" height="80"/><rect id="78" x="674" y="510" width="80" height="80"/><rect id="79" x="756" y="510" width="80" height="80"/><rect id="80" x="838" y="510" width="80" height="80" style="fill: #0000ff; "/><rect id="81" x="920" y="510" width="80" height="80"/><rect id="82" x="1002" y="510" width="80" height="80"/><rect id="83" x="1084" y="510" width="80" height="80"/><rect id="84" x="1166" y="510" width="80" height="80" style="fill: #0000ff; "/><rect id="85" x="100" y="592" width="80" height="80"/><rect id="86" x="182" y="592" width="80" height="80"/><rect id="87" x="264" y="592" width="80" height="80"/><rect id="88" x="346" y="592" width="80" height="80" style="fill: #0000ff; "/><rect id="89" x="428" y="592" width="80" height="80"/><rect id="90" x="510" y="592" width="80" height="80"/><rect id="91" x="592" y="592" width="80" height="80" style="stroke: #ff0000; stroke-width: 5; "/><rect id="92" x="674" y="592" width="80" height="80" style="fill: #0000ff; "/><rect id="93" x="756" y="592" width="80" height="80"/><rect id="94" x="838" y="592" width="80" height="80"/><rect id="95" x="920" y="592" width="80" height="80" rx="20" ry="20"/><rect id="96" x="1002" y="592" width="80" height="80" style="fill: #0000ff; "/><rect id="97" x="1084" y="592" width="80" height="80"/><rect id="98" x="1166" y="592" width="80" height="80"/></svg>
