<?xml version="1.0" encoding="utf-8"?>
<svg xmlns="http://www.w3.org/2000/svg" width="1843.2px" height="1036.8px" viewBox="0 01843.2 1036.8" version="1.1"><rect width="528" height="48" x="28.8" y="48" id="cell_0_0_left" rx="0" ry="0" style="fill: #a1d1e4; "/><rect width="528" height="48" x="1286.4" y="48" id="cell_0_0_right" rx="0" ry="0" style="fill: #a1d1e4; "/><path d="M 556.8,48 556.8,96 465.6,120 465.6,72 Z" id="connector_left_0_0_left" style="fill: #a1d1e4; "/><path d="M 556.8,48 556.8,96 465.6,120 465.6,72 Z" id="connector_left_shadow_0_0_left" style="fill: ffffff; opacity: 0.2; "/><path d="M 1286.4,48 1286.4,96 1377.6,120 1377.6,72 Z" id="connector_right_0_0_left" style="fill: #a1d1e4; "/><path d="M 1286.4,48 1286.4,96 1377.6,120 1377.6,72 Z" id="connector_right_shadow_0_0_left" style="fill: ffffff; opacity: 0.4; "/><rect width="912" height="48" x="465.6" y="72" id="cell_0_0_title" rx="0" ry="0" style="fill: #a1d1e4; "/><text id="text_title_0_0" x="870.975" y="104.625" style="font-family: Helvetica; font-size: 24; font-weight: normal; fill: #ffffff; ">Element 1</text><rect width="163.2" height="48" x="28.8" y="292.8" id="cell_1_0_left" rx="0" ry="0" style="fill: #225e78; "/><rect width="163.2" height="48" x="435.2" y="292.8" id="cell_1_0_right" rx="0" ry="0" style="fill: #225e78; "/><path d="M 192,292.8 192,340.8 161.6,316.8 161.6,268.8 Z" id="connector_left_1_0_left" style="fill: #225e78; "/><path d="M 192,292.8 192,340.8 161.6,316.8 161.6,268.8 Z" id="connector_left_shadow_1_0_left" style="fill: ffffff; opacity: 0.2; "/><path d="M 435.2,292.8 435.2,340.8 465.6,316.8 465.6,268.8 Z" id="connector_right_1_0_left" style="fill: #225e78; "/><path d="M 435.2,292.8 435.2,340.8 465.6,316.8 465.6,268.8 Z" id="connector_right_shadow_1_0_left" style="fill: ffffff; opacity: 0.4; "/><rect width="304" height="48" x="161.6" y="268.8" id="cell_1_0_title" rx="0" ry="0" style="fill: #225e78; "/><text id="text_title_1_0" x="252.85" y="301.425" style="font-family: Helvetica; font-size: 24; font-weight: normal; fill: #a1d1e4; ">Element 2.1</text><rect width="163.2" height="48" x="636.8" y="292.8" id="cell_1_1_left" rx="0" ry="0" style="fill: #a1d1e4; "/><rect width="163.2" height="48" x="1043.2" y="292.8" id="cell_1_1_right" rx="0" ry="0" style="fill: #a1d1e4; "/><path d="M 800,292.8 800,340.8 769.6,316.8 769.6,268.8 Z" id="connector_left_1_1_left" style="fill: #a1d1e4; "/><path d="M 800,292.8 800,340.8 769.6,316.8 769.6,268.8 Z" id="connector_left_shadow_1_1_left" style="fill: ffffff; opacity: 0.2; "/><path d="M 1043.2,292.8 1043.2,340.8 1073.6,316.8 1073.6,268.8 Z" id="connector_right_1_1_left" style="fill: #a1d1e4; "/><path d="M 1043.2,292.8 1043.2,340.8 1073.6,316.8 1073.6,268.8 Z" id="connector_right_shadow_1_1_left" style="fill: ffffff; opacity: 0.4; "/><rect width="304" height="48" x="769.6" y="268.8" id="cell_1_1_title" rx="0" ry="0" style="fill: #a1d1e4; "/><text id="text_title_1_1" x="859.35" y="301.425" style="font-family: Helvetica; font-size: 24; font-weight: normal; fill: #225e78; ">Element 2.2</text><rect width="163.2" height="48" x="1244.8" y="292.8" id="cell_1_2_left" rx="0" ry="0" style="fill: #225e78; "/><rect width="163.2" height="48" x="1651.2" y="292.8" id="cell_1_2_right" rx="0" ry="0" style="fill: #225e78; "/><path d="M 1408,292.8 1408,340.8 1377.6,316.8 1377.6,268.8 Z" id="connector_left_1_2_left" style="fill: #225e78; "/><path d="M 1408,292.8 1408,340.8 1377.6,316.8 1377.6,268.8 Z" id="connector_left_shadow_1_2_left" style="fill: ffffff; opacity: 0.2; "/><path d="M 1651.2,292.8 1651.2,340.8 1681.6,316.8 1681.6,268.8 Z" id="connector_right_1_2_left" style="fill: #225e78; "/><path d="M 1651.2,292.8 1651.2,340.8 1681.6,316.8 1681.6,268.8 Z" id="connector_right_shadow_1_2_left" style="fill: ffffff; opacity: 0.4; "/><rect width="304" height="48" x="1377.6" y="268.8" id="cell_1_2_title" rx="0" ry="0" style="fill: #225e78; "/><text id="text_title_1_2" x="1466.975" y="301.425" style="font-family: Helvetica; font-size: 24; font-weight: normal; fill: #a1d1e4; ">Element 2.3</text><image href="https://upload.wikimedia.org/wikipedia/commons/thumb/1/12/Bimetrical_icon_team_black.svg/200px-Bimetrical_icon_team_black.svg.png" x="365.6" y="533.6"/><rect width="344.64" height="48" x="11.52" y="537.6" id="cell_2_0_left" rx="0" ry="0" style="fill: #225e78; "/><rect width="344.64" height="48" x="575.04" y="537.6" id="cell_2_0_right" rx="0" ry="0" style="fill: #225e78; "/><path d="M 356.16,537.6 356.16,585.6 283.2,657.6 283.2,609.6 Z" id="connector_left_2_0_left" style="fill: #225e78; "/><path d="M 356.16,537.6 356.16,585.6 283.2,657.6 283.2,609.6 Z" id="connector_left_shadow_2_0_left" style="fill: ffffff; opacity: 0.2; "/><path d="M 575.04,537.6 575.04,585.6 648,657.6 648,609.6 Z" id="connector_right_2_0_left" style="fill: #225e78; "/><path d="M 575.04,537.6 575.04,585.6 648,657.6 648,609.6 Z" id="connector_right_shadow_2_0_left" style="fill: ffffff; opacity: 0.4; "/><rect width="364.8" height="48" x="283.2" y="609.6" id="cell_2_0_title" rx="0" ry="0" style="fill: #225e78; "/><text id="text_title_2_0" x="404.85" y="642.225" style="font-family: Helvetica; font-size: 24; font-weight: normal; fill: #ffffff; ">Element 3.1</text><image href="https://upload.wikimedia.org/wikipedia/commons/thumb/1/12/Bimetrical_icon_team_black.svg/200px-Bimetrical_icon_team_black.svg.png" x="1277.6" y="437.6"/><rect width="125.76" height="48" x="923.52" y="537.6" id="cell_2_1_left" rx="0" ry="0" style="fill: #a1d1e4; "/><rect width="125.76" height="48" x="1705.92" y="537.6" id="cell_2_1_right" rx="0" ry="0" style="fill: #a1d1e4; "/><path d="M 1049.28,537.6 1049.28,585.6 1012.8,561.6 1012.8,513.6 Z" id="connector_left_2_1_left" style="fill: #a1d1e4; "/><path d="M 1049.28,537.6 1049.28,585.6 1012.8,561.6 1012.8,513.6 Z" id="connector_left_shadow_2_1_left" style="fill: ffffff; opacity: 0.2; "/><path d="M 1705.92,537.6 1705.92,585.6 1742.4,561.6 1742.4,513.6 Z" id="connector_right_2_1_left" style="fill: #a1d1e4; "/><path d="M 1705.92,537.6 1705.92,585.6 1742.4,561.6 1742.4,513.6 Z" id="connector_right_shadow_2_1_left" style="fill: ffffff; opacity: 0.4; "/><rect width="729.6" height="48" x="1012.8" y="513.6" id="cell_2_1_title" rx="0" ry="0" style="fill: #a1d1e4; "/><text id="text_title_2_1" x="1315.35" y="546.225" style="font-family: Helvetica; font-size: 24; font-weight: normal; fill: #ffffff; ">Element 3.2</text><rect width="118.56" height="28.8" x="9.6" y="782.4" id="cell_3_0_left" rx="0" ry="0" style="fill: #225e78; "/><rect width="118.56" height="28.8" x="347.04" y="782.4" id="cell_3_0_right" rx="0" ry="0" style="fill: #225e78; "/><path d="M 128.16,782.4 128.16,811.2 169.2,782.4 169.2,753.6 Z" id="connector_left_3_0_left" style="fill: #225e78; "/><path d="M 128.16,782.4 128.16,811.2 169.2,782.4 169.2,753.6 Z" id="connector_left_shadow_3_0_left" style="fill: ffffff; opacity: 0.2; "/><path d="M 347.04,782.4 347.04,811.2 306,782.4 306,753.6 Z" id="connector_right_3_0_left" style="fill: #225e78; "/><path d="M 347.04,782.4 347.04,811.2 306,782.4 306,753.6 Z" id="connector_right_shadow_3_0_left" style="fill: ffffff; opacity: 0.4; "/><rect width="136.8" height="28.8" x="169.2" y="753.6" id="cell_3_0_title" rx="0" ry="0" style="fill: #225e78; "/><text id="text_title_3_0" x="206.85" y="772.5" style="font-family: Helvetica; font-size: 12; font-weight: normal; fill: #a1d1e4; ">Element 4.1</text><rect width="118.56" height="28.8" x="465.6" y="782.4" id="cell_3_1_left" rx="0" ry="0" style="fill: #a1d1e4; "/><rect width="118.56" height="28.8" x="803.04" y="782.4" id="cell_3_1_right" rx="0" ry="0" style="fill: #a1d1e4; "/><path d="M 584.16,782.4 584.16,811.2 625.2,840 625.2,811.2 Z" id="connector_left_3_1_left" style="fill: #a1d1e4; "/><path d="M 584.16,782.4 584.16,811.2 625.2,840 625.2,811.2 Z" id="connector_left_shadow_3_1_left" style="fill: ffffff; opacity: 0.2; "/><path d="M 803.04,782.4 803.04,811.2 762,840 762,811.2 Z" id="connector_right_3_1_left" style="fill: #a1d1e4; "/><path d="M 803.04,782.4 803.04,811.2 762,840 762,811.2 Z" id="connector_right_shadow_3_1_left" style="fill: ffffff; opacity: 0.4; "/><rect width="136.8" height="28.8" x="625.2" y="811.2" id="cell_3_1_title" rx="0" ry="0" style="fill: #a1d1e4; "/><text id="text_title_3_1" x="662.1" y="830.1" style="font-family: Helvetica; font-size: 12; font-weight: normal; fill: #225e78; ">Element 4.2</text><rect width="159.6" height="28.8" x="921.6" y="782.4" id="cell_3_2_left" rx="0" ry="0" style="fill: #225e78; "/><rect width="159.6" height="28.8" x="1218" y="782.4" id="cell_3_2_right" rx="0" ry="0" style="fill: #225e78; "/><path d="M 1081.2,782.4 1081.2,811.2 1081.2,782.4 1081.2,753.6 Z" id="connector_left_3_2_left" style="fill: #225e78; "/><path d="M 1081.2,782.4 1081.2,811.2 1081.2,782.4 1081.2,753.6 Z" id="connector_left_shadow_3_2_left" style="fill: ffffff; opacity: 0.2; "/><path d="M 1218,782.4 1218,811.2 1218,782.4 1218,753.6 Z" id="connector_right_3_2_left" style="fill: #225e78; "/><path d="M 1218,782.4 1218,811.2 1218,782.4 1218,753.6 Z" id="connector_right_shadow_3_2_left" style="fill: ffffff; opacity: 0.4; "/><rect width="136.8" height="28.8" x="1081.2" y="753.6" id="cell_3_2_title" rx="0" ry="0" style="fill: #225e78; "/><text id="text_title_3_2" x="1117.725" y="772.5" style="font-family: Helvetica; font-size: 12; font-weight: normal; fill: #a1d1e4; ">Element 4.3</text><rect width="159.6" height="28.8" x="1377.6" y="782.4" id="cell_3_3_left" rx="0" ry="0" style="fill: #a1d1e4; "/><rect width="159.6" height="28.8" x="1674" y="782.4" id="cell_3_3_right" rx="0" ry="0" style="fill: #a1d1e4; "/><path d="M 1537.2,782.4 1537.2,811.2 1537.2,840 1537.2,811.2 Z" id="connector_left_3_3_left" style="fill: #a1d1e4; "/><path d="M 1537.2,782.4 1537.2,811.2 1537.2,840 1537.2,811.2 Z" id="connector_left_shadow_3_3_left" style="fill: ffffff; opacity: 0.2; "/><path d="M 1674,782.4 1674,811.2 1674,840 1674,811.2 Z" id="connector_right_3_3_left" style="fill: #a1d1e4; "/><path d="M 1674,782.4 1674,811.2 1674,840 1674,811.2 Z" id="connector_right_shadow_3_3_left" style="fill: ffffff; opacity: 0.4; "/><rect width="136.8" height="28.8" x="1537.2" y="811.2" id="cell_3_3_title" rx="0" ry="0" style="fill: #a1d1e4; "/><text id="text_title_3_3" x="1573.725" y="830.1" style="font-family: Helvetica; font-size: 12; font-weight: normal; fill: #225e78; ">Element 4.4</text></svg>
